<svg width="11" height="10" viewBox="0 0 11 10" fill="none" xmlns="http://www.w3.org/2000/svg">
    <path fill-rule="evenodd" clip-rule="evenodd" d="M2.84944 0.125C3.96243 0.125 4.62493 1.00777 4.62498 1.87497V1.87503L4.62496 2.9375H7.03409L7.03407 1.87503V1.87497C7.03412 1.00777 7.69663 0.125 8.80961 0.125C9.55313 0.125 10.1046 0.294403 10.4582 0.67564C10.8046 1.04918 10.8581 1.52103 10.8717 1.85462C10.9083 2.75255 10.6266 3.35061 10.098 3.66979C9.65268 3.93874 9.12407 3.93795 8.8409 3.93753L8.80961 3.9375H8.03413V6.0625H8.80961L8.8409 6.06247C9.12407 6.06205 9.65268 6.06126 10.098 6.33021C10.6266 6.64939 10.9083 7.24745 10.8717 8.14538C10.8581 8.47897 10.8046 8.95082 10.4582 9.32436C10.1046 9.7056 9.55313 9.875 8.80961 9.875C7.69663 9.875 7.03412 8.99223 7.03407 8.12503V8.12497L7.03409 7.0625H4.62496L4.62498 8.12497V8.12503C4.62493 8.99223 3.96243 9.875 2.84944 9.875C2.10592 9.875 1.55441 9.7056 1.20087 9.32436C0.854462 8.95082 0.800967 8.47897 0.787355 8.14538C0.750717 7.24745 1.03248 6.64939 1.56102 6.33021C2.00638 6.06126 2.53498 6.06205 2.81816 6.06247L2.84944 6.0625H3.62492V3.9375H2.84944L2.81816 3.93753C2.53498 3.93795 2.00638 3.93874 1.56102 3.66979C1.03248 3.35061 0.750717 2.75255 0.787355 1.85462C0.800967 1.52103 0.854462 1.04918 1.20087 0.67564C1.55441 0.294403 2.10592 0.125 2.84944 0.125ZM4.62492 6.0625H4.62495H7.03411H7.03413V3.9375H7.03411H4.62495H4.62492V6.0625ZM3.62498 1.87503V1.87497C3.62493 1.49219 3.34463 1.125 2.84944 1.125C2.23225 1.125 2.01526 1.2681 1.9341 1.35561C1.84581 1.45082 1.79841 1.60397 1.78652 1.89538C1.75945 2.55885 1.95919 2.74205 2.07796 2.81377C2.26293 2.92547 2.52399 2.9375 2.84944 2.9375H3.62496L3.62498 1.87503ZM3.62498 8.12497V8.12503C3.62493 8.50781 3.34463 8.875 2.84944 8.875C2.23225 8.875 2.01526 8.7319 1.9341 8.64439C1.84581 8.54918 1.79841 8.39603 1.78652 8.10462C1.75945 7.44115 1.95919 7.25795 2.07796 7.18623C2.26293 7.07453 2.52399 7.0625 2.84944 7.0625H3.62496L3.62498 8.12497ZM8.03407 1.87503V1.87497C8.03413 1.49219 8.31442 1.125 8.80961 1.125C9.4268 1.125 9.64379 1.2681 9.72495 1.35561C9.81324 1.45082 9.86064 1.60397 9.87253 1.89538C9.8996 2.55885 9.69986 2.74205 9.58109 2.81377C9.39612 2.92547 9.13506 2.9375 8.80961 2.9375H8.03409L8.03407 1.87503ZM8.03407 8.12497V8.12503C8.03413 8.50781 8.31442 8.875 8.80961 8.875C9.4268 8.875 9.64379 8.7319 9.72495 8.64439C9.81324 8.54918 9.86064 8.39603 9.87253 8.10462C9.8996 7.44115 9.69986 7.25795 9.58109 7.18623C9.39612 7.07453 9.13506 7.0625 8.80961 7.0625H8.03409L8.03407 8.12497Z" fill="#545B64"/>
</svg>
