<svg width="13" height="12" viewBox="0 0 13 12" fill="none" xmlns="http://www.w3.org/2000/svg">
    <path fill-rule="evenodd" clip-rule="evenodd" d="M6.87457 0.894287C6.59843 0.894287 6.37457 1.11814 6.37457 1.39429C6.37457 1.67043 6.59843 1.89429 6.87457 1.89429H9.60569C10.4341 1.89429 11.1057 2.56586 11.1057 3.39429V6.09671C11.1057 6.92514 10.4341 7.59671 9.60569 7.59671H5.29753L1.77351 7.59671L4.10194 5.26828C4.2972 5.07302 4.2972 4.75644 4.10194 4.56118C3.90668 4.36591 3.5901 4.36591 3.39483 4.56118L0.212853 7.74316C0.0175907 7.93842 0.0175906 8.255 0.212853 8.45026L3.39483 11.6322C3.5901 11.8275 3.90668 11.8275 4.10194 11.6322C4.2972 11.437 4.2972 11.1204 4.10194 10.9251L1.77351 8.59671L5.29753 8.59671H9.60569C10.9864 8.59671 12.1057 7.47742 12.1057 6.09671V3.39429C12.1057 2.01358 10.9864 0.894287 9.60569 0.894287H6.87457Z" fill="#545B64"/>
</svg>
